<svg viewBox="0 0 48 48" xmlns="http://www.w3.org/2000/svg" xmlns:xlink="http://www.w3.org/1999/xlink" width="48.000000" height="48.000000" fill="none" customFrame="#000000">
	<rect id="3d-square" width="48.000000" height="48.000000" x="0.000000" y="0.000000" fill="rgb(255,255,255)" fill-opacity="0" />
	<g id="vuesax/bold/3d-square">
		<g id="3d-square">
			<path id="Vector" opacity="0" />
			<path id="Vector" d="M32.38 4.66003L15.62 4.66003C8.34 4.66003 4 9.02003 4 16.3L4 33.04C4 40.32 8.34 44.66 15.62 44.66L32.36 44.66C39.64 44.66 43.98 40.32 43.98 33.04L43.98 16.3C44 9.02003 39.66 4.66003 32.38 4.66003ZM23.14 34.24C23.14 34.84 22.84 35.38 22.32 35.7C22.04 35.88 21.74 35.96 21.42 35.96C21.16 35.96 20.9 35.9 20.64 35.78L13.64 32.28C12.64 31.76 12 30.74 12 29.6L12 22.98C12 22.38 12.3 21.84 12.82 21.52C13.34 21.2 13.96 21.18 14.5 21.44L21.5 24.94C22.52 25.46 23.16 26.48 23.16 27.62L23.16 34.24L23.14 34.24ZM22.72 23.54L15.2 19.48C14.66 19.18 14.32 18.6 14.32 17.94C14.32 17.3 14.66 16.7 15.2 16.4L22.72 12.34C23.52 11.92 24.46 11.92 25.26 12.34L32.78 16.4C33.32 16.7 33.66 17.28 33.66 17.94C33.66 18.6 33.32 19.18 32.78 19.48L25.26 23.54C24.86 23.76 24.42 23.86 23.98 23.86C23.54 23.86 23.12 23.76 22.72 23.54ZM36 29.6C36 30.74 35.36 31.78 34.34 32.28L27.34 35.78C27.1 35.9 26.84 35.96 26.56 35.96C26.24 35.96 25.94 35.88 25.66 35.7C25.14 35.38 24.84 34.84 24.84 34.24L24.84 27.62C24.84 26.48 25.48 25.44 26.5 24.94L33.5 21.44C34.04 21.18 34.66 21.2 35.18 21.52C35.7 21.84 36 22.38 36 22.98L36 29.6Z" fill="rgb(77,85,204)" fill-rule="nonzero" />
		</g>
	</g>
</svg>
