<svg viewBox="0 0 48 48" xmlns="http://www.w3.org/2000/svg" xmlns:xlink="http://www.w3.org/1999/xlink" width="48.000000" height="48.000000" fill="none" customFrame="#000000">
	<rect id="video-time" width="48.000000" height="48.000000" x="0.000000" y="0.000000" fill="rgb(255,255,255)" fill-opacity="0" />
	<g id="vuesax/bold/video-time">
		<g id="video-time">
			<path id="Vector" opacity="0" />
			<path id="Vector" d="M43.96 31.3C42.32 29.28 39.82 28 37 28C34.88 28 32.92 28.74 31.38 29.98C29.3 31.62 28 34.16 28 37C28 39.82 29.28 42.32 31.3 43.96C32.84 45.24 34.84 46 37 46C39.28 46 41.34 45.14 42.94 43.76C44.8 42.1 46 39.7 46 37C46 34.84 45.24 32.84 43.96 31.3ZM39.06 37.56C39.06 38.08 38.78 38.58 38.34 38.84L35.52 40.52C35.28 40.66 35.02 40.74 34.74 40.74C34.24 40.74 33.74 40.48 33.46 40.02C33.04 39.3 33.26 38.38 33.98 37.96L36.06 36.72L36.06 34.2C36.06 33.38 36.74 32.7 37.56 32.7C38.38 32.7 39.06 33.38 39.06 34.2L39.06 37.56Z" fill="rgb(77,85,204)" fill-rule="nonzero" />
			<path id="Vector" d="M29.46 11.72L29.46 5C29.46 4.44 29.02 4 28.46 4L19.54 4C18.98 4 18.54 4.44 18.54 5L18.54 11.72C18.54 12.28 18.98 12.72 19.54 12.72L28.46 12.72C29.02 12.72 29.46 12.28 29.46 11.72Z" fill="rgb(77,85,204)" fill-rule="nonzero" />
			<path id="Vector" d="M14.5 4.03993C9.37999 4.35993 5.87999 6.99993 4.57999 11.3999C4.37999 12.0599 4.85999 12.7199 5.53999 12.7199L14.54 12.7199C15.1 12.7199 15.54 12.2799 15.54 11.7199L15.54 5.03993C15.54 4.47993 15.06 3.99993 14.5 4.03993Z" fill="rgb(77,85,204)" fill-rule="nonzero" />
			<path id="Vector" d="M33.5 4.02003C38.62 4.34003 42.12 6.98003 43.42 11.38C43.62 12.04 43.14 12.7 42.46 12.7L33.46 12.7C32.9 12.7 32.46 12.26 32.46 11.7L32.46 5.02003C32.46 4.46003 32.94 3.98003 33.5 4.02003Z" fill="rgb(77,85,204)" fill-rule="nonzero" />
			<path id="Vector" d="M44 16.72L44 25.48C44 26.22 43.22 26.7 42.56 26.36C40.88 25.48 38.96 25 37 25C33.78 25 30.64 26.32 28.4 28.62C26.2 30.86 25 33.84 25 37C25 38.62 25.64 40.7 26.44 42.44C26.76 43.14 26.28 44 25.5 44L15.62 44C9.2 44 4 38.8 4 32.38L4 16.72C4 16.16 4.44 15.72 5 15.72L43 15.72C43.56 15.72 44 16.16 44 16.72Z" fill="rgb(77,85,204)" fill-rule="nonzero" />
		</g>
	</g>
</svg>
