<svg viewBox="0 0 48 48" xmlns="http://www.w3.org/2000/svg" xmlns:xlink="http://www.w3.org/1999/xlink" width="48.000000" height="48.000000" fill="none" customFrame="#000000">
	<rect id="designtools" width="48.000000" height="48.000000" x="0.000000" y="0.000000" fill="rgb(255,255,255)" fill-opacity="0" />
	<g id="vuesax/bold/designtools">
		<g id="designtools">
			<path id="Vector" d="M42.08 26.56L40.24 24.76L24.74 40.24L26.6 42.1C28.16 43.66 29.78 44.44 31.38 44.44C32.98 44.44 34.6 43.66 36.16 42.1L42.08 36.18C45.26 32.98 45.26 29.76 42.08 26.56Z" fill="rgb(77,85,204)" fill-rule="nonzero" />
			<path id="Vector" d="M21.38 5.86C18.24 2.72001 14.94 2.72001 11.8 5.86L5.86002 11.78C2.74002 14.92 2.74002 18.22 5.86002 21.36L7.70002 23.2L23.2 7.7L21.38 5.86Z" fill="rgb(77,85,204)" fill-rule="nonzero" />
			<path id="Vector" d="M43.62 7.87994C41 14.4199 35.02 22.9599 29.32 28.5399C28.5 23.3799 24.38 19.3399 19.18 18.6199C24.78 12.8999 33.38 6.83994 39.94 4.19993C41.1 3.75993 42.26 4.09994 42.98 4.81994C43.74 5.57994 44.1 6.71994 43.62 7.87994Z" fill="rgb(77,85,204)" fill-rule="nonzero" />
			<path id="Vector" d="M27.56 30.18C27.16 30.52 26.76 30.86 26.36 31.18L22.78 34.04C22.78 33.98 22.76 33.9 22.76 33.82C22.48 31.68 21.48 29.7 19.86 28.08C18.22 26.44 16.18 25.44 13.94 25.16C13.88 25.16 13.8 25.14 13.74 25.14L16.64 21.48C16.92 21.12 17.22 20.78 17.54 20.42L18.9 20.6C23.2 21.2 26.66 24.58 27.34 28.86L27.56 30.18Z" fill="rgb(77,85,204)" fill-rule="nonzero" />
			<path id="Vector" d="M20.86 35.24C20.86 37.44 20.02 39.54 18.42 41.12C17.2 42.36 15.56 43.2 13.56 43.44L8.66002 43.98C5.98002 44.28 3.68002 41.98 3.98002 39.28L4.52002 34.36C5.00002 29.98 8.66002 27.18 12.54 27.1C12.92 27.08 13.34 27.1 13.74 27.14C15.44 27.36 17.08 28.14 18.46 29.5C19.8 30.84 20.56 32.42 20.78 34.08C20.82 34.48 20.86 34.86 20.86 35.24Z" fill="rgb(77,85,204)" fill-rule="nonzero" />
			<path id="Vector" opacity="0" />
		</g>
	</g>
</svg>
