<svg viewBox="0 0 48 48" xmlns="http://www.w3.org/2000/svg" xmlns:xlink="http://www.w3.org/1999/xlink" width="48.000000" height="48.000000" fill="none" customFrame="#000000">
	<rect id="note-2" width="48.000000" height="48.000000" x="0.000000" y="0.000000" fill="rgb(255,255,255)" fill-opacity="0" />
	<g id="vuesax/bold/note-2">
		<path id="Vector" d="M25.6605 40.859C25.5811 40.886 25.5009 40.913 25.42 40.94L22.26 41.98C14.32 44.54 10.14 42.4 7.56 34.46L5 26.56C2.44 18.62 4.56 14.42 12.5 11.86L14.564 11.1764C14.9669 11.043 15.3503 11.4437 15.2184 11.8471C14.9888 12.5492 14.78 13.3135 14.58 14.14L12.62 22.52C10.42 31.94 13.64 37.14 23.06 39.38L25.6025 39.9715C26.0742 40.0813 26.1189 40.7031 25.6605 40.859Z" fill="rgb(77,85,204)" fill-rule="nonzero" />
		<path id="Vector" d="M34.34 6.42002L31 5.64002C24.32 4.06002 20.34 5.36002 18 10.2C17.4 11.42 16.92 12.9 16.52 14.6L14.56 22.98C12.6 31.34 15.18 35.46 23.52 37.44L26.88 38.24C28.04 38.52 29.12 38.7 30.12 38.78C36.36 39.38 39.68 36.46 41.36 29.24L43.32 20.88C45.28 12.52 42.72 8.38002 34.34 6.42002ZM30.58 26.66C30.4 27.34 29.8 27.78 29.12 27.78C29 27.78 28.88 27.76 28.74 27.74L22.92 26.26C22.12 26.06 21.64 25.24 21.84 24.44C22.04 23.64 22.86 23.16 23.66 23.36L29.48 24.84C30.3 25.04 30.78 25.86 30.58 26.66ZM36.44 19.9C36.26 20.58 35.66 21.02 34.98 21.02C34.86 21.02 34.74 21 34.6 20.98L24.9 18.52C24.1 18.32 23.62 17.5 23.82 16.7C24.02 15.9 24.84 15.42 25.64 15.62L35.34 18.08C36.16 18.26 36.64 19.08 36.44 19.9Z" fill="rgb(77,85,204)" fill-rule="nonzero" />
		<path id="Vector" opacity="0" transform="matrix(-1,-1.22465e-16,1.22465e-16,-1,48,48)" />
	</g>
</svg>
