<svg viewBox="0 0 48 48" xmlns="http://www.w3.org/2000/svg" xmlns:xlink="http://www.w3.org/1999/xlink" width="48.000000" height="48.000000" fill="none" customFrame="#000000">
	<rect id="code" width="48.000000" height="48.000000" x="0.000000" y="0.000000" fill="rgb(255,255,255)" fill-opacity="0" />
	<g id="vuesax/bold/code">
		<g id="code">
			<path id="Vector" d="M42 20L6 20C4.9 20 4 20.9 4 22L4 32.38C4 32.78 4.02 33.18 4.06 33.58C4.46 39.74 8.26 43.54 14.42 43.94C14.82 43.98 15.22 44 15.62 44L32.38 44C32.78 44 33.18 43.98 33.58 43.94C39.74 43.54 43.54 39.74 43.94 33.58C43.98 33.18 44 32.78 44 32.38L44 22C44 20.9 43.1 20 42 20ZM16 32.3C16.68 33.3 17.6 34.12 18.66 34.66C19.42 35.02 19.72 35.92 19.34 36.68C19.08 37.2 18.54 37.5 18 37.5C17.78 37.5 17.54 37.44 17.34 37.34C15.78 36.58 14.46 35.4 13.52 33.98C12.72 32.78 12.72 31.22 13.52 30.02C14.46 28.6 15.78 27.42 17.34 26.66C18.08 26.28 18.98 26.58 19.34 27.32C19.72 28.08 19.42 28.98 18.66 29.34C17.6 29.88 16.68 30.7 16 31.7C15.88 31.88 15.88 32.12 16 32.3ZM34.9 33.98C33.94 35.4 32.62 36.58 31.08 37.34C30.86 37.44 30.64 37.5 30.42 37.5C29.86 37.5 29.34 37.2 29.08 36.68C28.7 35.92 29 35.02 29.74 34.66C30.82 34.12 31.74 33.3 32.4 32.3C32.54 32.12 32.54 31.88 32.4 31.7C31.74 30.7 30.82 29.88 29.74 29.34C29 28.98 28.7 28.08 29.08 27.32C29.44 26.58 30.34 26.28 31.08 26.66C32.62 27.42 33.94 28.6 34.9 30.02C35.7 31.22 35.7 32.78 34.9 33.98Z" fill="rgb(77,85,204)" fill-rule="nonzero" />
			<path id="Vector" d="M44 15.62L44 16C44 17.1 43.1 18 42 18L6 18.02C4.9 18.02 4 17.12 4 16.02L4 15.62C4 15.22 4.02 14.82 4.06 14.42C4.46 8.26 8.26 4.46 14.42 4.06C14.82 4.02 15.22 4 15.62 4L32.38 4C32.78 4 33.18 4.02 33.58 4.06C39.74 4.46 43.54 8.26 43.94 14.42C43.98 14.82 44 15.22 44 15.62Z" fill="rgb(77,85,204)" fill-rule="nonzero" />
			<path id="Vector" opacity="0" transform="matrix(-1,-1.22465e-16,1.22465e-16,-1,48,48)" />
		</g>
	</g>
</svg>
