<svg viewBox="0 0 48 48" xmlns="http://www.w3.org/2000/svg" xmlns:xlink="http://www.w3.org/1999/xlink" width="48.000000" height="48.000000" fill="none" customFrame="#000000">
	<rect id="monitor-mobbile " width="48.000000" height="48.000000" x="0.000000" y="0.000000" fill="rgb(255,255,255)" fill-opacity="0" />
	<g id="vuesax/bold/monitor-mobbile">
		<g id="monitor-mobbile">
			<path id="Vector" d="M41.98 19.42C41.3 19.14 40.4 19 39.28 19L28.72 19C25.24 19 24 20.24 24 23.76L24 39.24C24 40.4 24.14 41.3 24.44 42C25.06 43.44 26.38 44 28.72 44L39.28 44C42.76 44 44 42.74 44 39.24L44 23.76C44 21.38 43.44 20.04 41.98 19.42ZM36 39.5L32 39.5C31.96 39.5 31.9 39.5 31.86 39.48C31.56 39.46 31.3 39.36 31.08 39.16C30.72 38.9 30.5 38.48 30.5 38C30.5 37.18 31.18 36.5 32 36.5L36 36.5C36.82 36.5 37.5 37.18 37.5 38C37.5 38.82 36.82 39.5 36 39.5Z" fill="rgb(77,85,204)" fill-rule="nonzero" />
			<path id="Vector" d="M41.98 12.38L41.98 14C41.98 15.1 41.08 16 39.98 16L28.72 16C23.6 16 21 18.62 21 23.76L21 42C21 43.1 20.1 44 19 44L15.1 44C14.3 44 13.66 43.36 13.66 42.58C13.66 41.78 14.3 41.16 15.1 41.16L19 41.16L19 33.5L12 33.5C7.56002 33.28 4.02002 29.62 4.02002 25.12L4.02002 12.38C4.02002 7.76 7.78002 4 12.42 4L33.6 4C38.22 4 41.98 7.76 41.98 12.38Z" fill="rgb(77,85,204)" fill-rule="nonzero" />
			<path id="Vector" opacity="0" transform="matrix(-1,-1.22465e-16,1.22465e-16,-1,48,48)" />
		</g>
	</g>
</svg>
