<svg viewBox="0 0 48 48" xmlns="http://www.w3.org/2000/svg" xmlns:xlink="http://www.w3.org/1999/xlink" width="48.000000" height="48.000000" fill="none" customFrame="#000000">
	<rect id="award" width="48.000000" height="48.000000" x="0.000000" y="0.000000" fill="rgb(255,255,255)" fill-opacity="0" />
	<g id="vuesax/bold/award">
		<path id="Vector" d="M35.62 10.98L35.62 12.46L28.54 8.36C25.86 6.82 22.12 6.82 19.46 8.36L12.38 12.48L12.38 10.98C12.38 6.48 14.84 4 19.34 4L28.66 4C33.16 4 35.62 6.48 35.62 10.98Z" fill="rgb(255,255,255)" fill-rule="nonzero" />
		<path id="Vector" d="M35.68 15.94L35.4 15.8L32.68 14.24L27.04 10.98C25.32 9.97998 22.68 9.97998 20.96 10.98L15.32 14.22L12.6 15.82L12.24 16C8.74 18.36 8.5 18.8 8.5 22.58L8.5 31.62C8.5 35.4 8.74 35.84 12.32 38.26L20.96 43.24C21.82 43.76 22.9 43.98 24 43.98C25.08 43.98 26.18 43.74 27.04 43.24L35.76 38.2C39.28 35.84 39.5 35.42 39.5 31.62L39.5 22.58C39.5 18.8 39.26 18.36 35.68 15.94ZM29.58 27L28.36 28.5C28.16 28.72 28.02 29.14 28.04 29.44L28.16 31.36C28.24 32.54 27.4 33.14 26.3 32.72L24.52 32C24.24 31.9 23.78 31.9 23.5 32L21.72 32.7C20.62 33.14 19.78 32.52 19.86 31.34L19.98 29.42C20 29.12 19.86 28.7 19.66 28.48L18.42 27C17.66 26.1 18 25.1 19.14 24.8L21 24.32C21.3 24.24 21.64 23.96 21.8 23.72L22.84 22.12C23.48 21.12 24.5 21.12 25.16 22.12L26.2 23.72C26.36 23.98 26.72 24.24 27 24.32L28.86 24.8C30 25.1 30.34 26.1 29.58 27Z" fill="rgb(255,255,255)" fill-rule="nonzero" />
		<path id="Vector" opacity="0" transform="matrix(-1,-1.22465e-16,1.22465e-16,-1,48,48)" />
	</g>
</svg>
