<svg viewBox="0 0 219 48" xmlns="http://www.w3.org/2000/svg" xmlns:xlink="http://www.w3.org/1999/xlink" width="219.000000" height="48.000000" fill="none" customFrame="#000000">
	<defs>
		<clipPath id="clipPath_0">
			<rect width="48.000000" height="48.000000" x="0.000000" y="0.000000" fill="rgb(255,255,255)" />
		</clipPath>
	</defs>
	<rect id="logo" width="219.000000" height="48.000000" x="0.000000" y="0.000000" />
	<g id="award" customFrame="url(#clipPath_0)">
		<rect id="award" width="48.000000" height="48.000000" x="0.000000" y="0.000000" fill="rgb(255,255,255)" fill-opacity="0" />
		<g id="vuesax/bold/award">
			<path id="Vector" d="M35.62 10.98L35.62 12.46L28.54 8.36C25.86 6.82 22.12 6.82 19.46 8.36L12.38 12.48L12.38 10.98C12.38 6.48 14.84 4 19.34 4L28.66 4C33.16 4 35.62 6.48 35.62 10.98Z" fill="rgb(77,85,204)" fill-rule="nonzero" />
			<path id="Vector" d="M35.68 15.94L35.4 15.8L32.68 14.24L27.04 10.98C25.32 9.98 22.68 9.98 20.96 10.98L15.32 14.22L12.6 15.82L12.24 16C8.74 18.36 8.5 18.8 8.5 22.58L8.5 31.62C8.5 35.4 8.74 35.84 12.32 38.26L20.96 43.24C21.82 43.76 22.9 43.98 24 43.98C25.08 43.98 26.18 43.74 27.04 43.24L35.76 38.2C39.28 35.84 39.5 35.42 39.5 31.62L39.5 22.58C39.5 18.8 39.26 18.36 35.68 15.94ZM29.58 27L28.36 28.5C28.16 28.72 28.02 29.14 28.04 29.44L28.16 31.36C28.24 32.54 27.4 33.14 26.3 32.72L24.52 32C24.24 31.9 23.78 31.9 23.5 32L21.72 32.7C20.62 33.14 19.78 32.52 19.86 31.34L19.98 29.42C20 29.12 19.86 28.7 19.66 28.48L18.42 27C17.66 26.1 18 25.1 19.14 24.8L21 24.32C21.3 24.24 21.64 23.96 21.8 23.72L22.84 22.12C23.48 21.12 24.5 21.12 25.16 22.12L26.2 23.72C26.36 23.98 26.72 24.24 27 24.32L28.86 24.8C30 25.1 30.34 26.1 29.58 27Z" fill="rgb(77,85,204)" fill-rule="nonzero" />
			<path id="Vector" opacity="0" transform="matrix(-1,-1.22465e-16,1.22465e-16,-1,48,48)" />
		</g>
	</g>
	<path id="Master.It" d="M59.384 36.906L59.384 11.706L63.236 11.706L74.252 30.102L72.236 30.102L83.072 11.706L86.924 11.706L86.96 36.906L82.532 36.906L82.496 18.654L83.432 18.654L74.216 34.026L72.128 34.026L62.768 18.654L63.848 18.654L63.848 36.906L59.384 36.906ZM105.179 36.906L105.179 33.018L104.927 32.19L104.927 25.386C104.927 24.066 104.531 23.046 103.739 22.326C102.947 21.582 101.747 21.21 100.139 21.21C99.0588 21.21 97.9908 21.378 96.9348 21.714C95.9028 22.05 95.0268 22.518 94.3068 23.118L92.5428 19.842C93.5748 19.05 94.7988 18.462 96.2148 18.078C97.6548 17.67 99.1428 17.466 100.679 17.466C103.463 17.466 105.611 18.138 107.123 19.482C108.659 20.802 109.427 22.854 109.427 25.638L109.427 36.906L105.179 36.906ZM99.1308 37.158C97.6908 37.158 96.4308 36.918 95.3508 36.438C94.2708 35.934 93.4308 35.25 92.8308 34.386C92.2548 33.498 91.9668 32.502 91.9668 31.398C91.9668 30.318 92.2188 29.346 92.7228 28.482C93.2508 27.618 94.1028 26.934 95.2788 26.43C96.4548 25.926 98.0148 25.674 99.9588 25.674L105.539 25.674L105.539 28.662L100.283 28.662C98.7468 28.662 97.7148 28.914 97.1868 29.418C96.6588 29.898 96.3948 30.498 96.3948 31.218C96.3948 32.034 96.7188 32.682 97.3668 33.162C98.0148 33.642 98.9148 33.882 100.067 33.882C101.171 33.882 102.155 33.63 103.019 33.126C103.907 32.622 104.543 31.878 104.927 30.894L105.683 33.594C105.251 34.722 104.471 35.598 103.343 36.222C102.239 36.846 100.835 37.158 99.1308 37.158ZM121.142 37.158C119.534 37.158 117.986 36.954 116.498 36.546C115.034 36.114 113.87 35.598 113.006 34.998L114.734 31.578C115.598 32.13 116.63 32.586 117.83 32.946C119.03 33.306 120.23 33.486 121.43 33.486C122.846 33.486 123.866 33.294 124.49 32.91C125.138 32.526 125.462 32.01 125.462 31.362C125.462 30.834 125.246 30.438 124.814 30.174C124.382 29.886 123.818 29.67 123.122 29.526C122.426 29.382 121.646 29.25 120.782 29.13C119.942 29.01 119.09 28.854 118.226 28.662C117.386 28.446 116.618 28.146 115.922 27.762C115.226 27.354 114.662 26.814 114.23 26.142C113.798 25.47 113.582 24.582 113.582 23.478C113.582 22.254 113.93 21.198 114.626 20.31C115.322 19.398 116.294 18.702 117.542 18.222C118.814 17.718 120.314 17.466 122.042 17.466C123.338 17.466 124.646 17.61 125.966 17.898C127.286 18.186 128.378 18.594 129.242 19.122L127.514 22.542C126.602 21.99 125.678 21.618 124.742 21.426C123.83 21.21 122.918 21.102 122.006 21.102C120.638 21.102 119.618 21.306 118.946 21.714C118.298 22.122 117.974 22.638 117.974 23.262C117.974 23.838 118.19 24.27 118.622 24.558C119.054 24.846 119.618 25.074 120.314 25.242C121.01 25.41 121.778 25.554 122.618 25.674C123.482 25.77 124.334 25.926 125.174 26.142C126.014 26.358 126.782 26.658 127.478 27.042C128.198 27.402 128.774 27.918 129.206 28.59C129.638 29.262 129.854 30.138 129.854 31.218C129.854 32.418 129.494 33.462 128.774 34.35C128.078 35.238 127.082 35.934 125.786 36.438C124.49 36.918 122.942 37.158 121.142 37.158ZM140.965 37.158C138.853 37.158 137.221 36.618 136.069 35.538C134.917 34.434 134.341 32.814 134.341 30.678L134.341 13.434L138.841 13.434L138.841 30.57C138.841 31.482 139.069 32.19 139.525 32.694C140.005 33.198 140.665 33.45 141.505 33.45C142.513 33.45 143.353 33.186 144.025 32.658L145.285 35.862C144.757 36.294 144.109 36.618 143.341 36.834C142.573 37.05 141.781 37.158 140.965 37.158ZM131.173 21.426L131.173 17.826L143.989 17.826L143.989 21.426L131.173 21.426ZM157.39 37.158C155.254 37.158 153.382 36.738 151.774 35.898C150.19 35.034 148.954 33.858 148.066 32.37C147.202 30.882 146.77 29.19 146.77 27.294C146.77 25.374 147.19 23.682 148.03 22.218C148.894 20.73 150.07 19.566 151.558 18.726C153.07 17.886 154.786 17.466 156.706 17.466C158.578 17.466 160.246 17.874 161.71 18.69C163.174 19.506 164.326 20.658 165.166 22.146C166.006 23.634 166.426 25.386 166.426 27.402C166.426 27.594 166.414 27.81 166.39 28.05C166.39 28.29 166.378 28.518 166.354 28.734L150.334 28.734L150.334 25.746L163.978 25.746L162.214 26.682C162.238 25.578 162.01 24.606 161.53 23.766C161.05 22.926 160.39 22.266 159.55 21.786C158.734 21.306 157.786 21.066 156.706 21.066C155.602 21.066 154.63 21.306 153.79 21.786C152.974 22.266 152.326 22.938 151.846 23.802C151.39 24.642 151.162 25.638 151.162 26.79L151.162 27.51C151.162 28.662 151.426 29.682 151.954 30.57C152.482 31.458 153.226 32.142 154.186 32.622C155.146 33.102 156.25 33.342 157.498 33.342C158.578 33.342 159.55 33.174 160.414 32.838C161.278 32.502 162.046 31.974 162.718 31.254L165.13 34.026C164.266 35.034 163.174 35.814 161.854 36.366C160.558 36.894 159.07 37.158 157.39 37.158ZM170.749 36.906L170.749 17.682L175.033 17.682L175.033 22.974L174.529 21.426C175.105 20.13 176.005 19.146 177.229 18.474C178.477 17.802 180.025 17.466 181.873 17.466L181.873 21.75C181.681 21.702 181.501 21.678 181.333 21.678C181.165 21.654 180.997 21.642 180.829 21.642C179.125 21.642 177.769 22.146 176.761 23.154C175.753 24.138 175.249 25.614 175.249 27.582L175.249 36.906L170.749 36.906ZM186.954 37.158C186.139 37.158 185.443 36.882 184.867 36.33C184.29 35.754 184.003 35.034 184.003 34.17C184.003 33.258 184.29 32.538 184.867 32.01C185.443 31.458 186.139 31.182 186.954 31.182C187.771 31.182 188.467 31.458 189.042 32.01C189.618 32.538 189.906 33.258 189.906 34.17C189.906 35.034 189.618 35.754 189.042 36.33C188.467 36.882 187.771 37.158 186.954 37.158Z" fill="rgb(18,25,38)" fill-rule="nonzero" />
	<path id="Master.It" d="M194.736 36.906L194.736 11.706L199.416 11.706L199.416 36.906L194.736 36.906ZM213.036 37.158C210.924 37.158 209.292 36.618 208.14 35.538C206.988 34.434 206.412 32.814 206.412 30.678L206.412 13.434L210.912 13.434L210.912 30.57C210.912 31.482 211.14 32.19 211.596 32.694C212.076 33.198 212.736 33.45 213.576 33.45C214.584 33.45 215.424 33.186 216.096 32.658L217.356 35.862C216.828 36.294 216.18 36.618 215.412 36.834C214.644 37.05 213.852 37.158 213.036 37.158ZM203.244 21.426L203.244 17.826L216.06 17.826L216.06 21.426L203.244 21.426Z" fill="rgb(18,25,38)" fill-rule="nonzero" />
	<path id="Master.It" d="M194.736 36.906L194.736 11.706L199.416 11.706L199.416 36.906L194.736 36.906ZM213.036 37.158C210.924 37.158 209.292 36.618 208.14 35.538C206.988 34.434 206.412 32.814 206.412 30.678L206.412 13.434L210.912 13.434L210.912 30.57C210.912 31.482 211.14 32.19 211.596 32.694C212.076 33.198 212.736 33.45 213.576 33.45C214.584 33.45 215.424 33.186 216.096 32.658L217.356 35.862C216.828 36.294 216.18 36.618 215.412 36.834C214.644 37.05 213.852 37.158 213.036 37.158ZM203.244 21.426L203.244 17.826L216.06 17.826L216.06 21.426L203.244 21.426Z" fill="rgb(77,85,204)" fill-rule="nonzero" />
</svg>
