<svg viewBox="0 0 199 32" xmlns="http://www.w3.org/2000/svg" xmlns:xlink="http://www.w3.org/1999/xlink" width="199.000000" height="32.000000" fill="none" customFrame="#000000">
	<defs>
		<clipPath id="clipPath_1">
			<rect width="32.000000" height="32.000000" x="0.000000" y="0.000000" fill="rgb(255,255,255)" />
		</clipPath>
	</defs>
	<rect id="rating" width="199.000000" height="32.000000" x="0.000000" y="0.000000" />
	<g id="star" customFrame="url(#clipPath_1)">
		<rect id="star" width="32.000000" height="32.000000" x="0.000000" y="0.000000" fill="rgb(255,255,255)" fill-opacity="0" />
		<g id="vuesax/bold/star">
			<g id="star">
				<path id="Vector" d="M18.3065 4.67978L20.6532 9.37311C20.9732 10.0264 21.8265 10.6531 22.5465 10.7731L26.7999 11.4798C29.5199 11.9331 30.1599 13.9064 28.1999 15.8531L24.8932 19.1598C24.3332 19.7198 24.0265 20.7998 24.1999 21.5731L25.1465 25.6664C25.8932 28.9064 24.1732 30.1598 21.3065 28.4664L17.3199 26.1064C16.5999 25.6798 15.4132 25.6798 14.6799 26.1064L10.6932 28.4664C7.83988 30.1598 6.10655 28.8931 6.85321 25.6664L7.79988 21.5731C7.97321 20.7998 7.66655 19.7198 7.10655 19.1598L3.79988 15.8531C1.85321 13.9064 2.47988 11.9331 5.19988 11.4798L9.45321 10.7731C10.1599 10.6531 11.0132 10.0264 11.3332 9.37311L13.6799 4.67978C14.9599 2.13311 17.0399 2.13311 18.3065 4.67978Z" fill="rgb(77,85,204)" fill-rule="nonzero" />
				<path id="Vector" opacity="0" transform="matrix(-1,-1.22465e-16,1.22465e-16,-1,32,32)" />
			</g>
		</g>
	</g>
	<path id="4.3 | 86.525 students" d="M36.64 18.792L36.64 17.96L42.576 10.536L43.856 10.536L37.968 17.96L37.344 17.768L46.352 17.768L46.352 18.792L36.64 18.792ZM42.96 21.736L42.96 18.792L42.992 17.768L42.992 15.176L44.112 15.176L44.112 21.736L42.96 21.736ZM48.5866 21.816C48.352 21.816 48.1493 21.7307 47.9786 21.56C47.8186 21.3893 47.7386 21.1813 47.7386 20.936C47.7386 20.68 47.8186 20.472 47.9786 20.312C48.1493 20.152 48.352 20.072 48.5866 20.072C48.8213 20.072 49.0186 20.152 49.1786 20.312C49.3493 20.472 49.4346 20.68 49.4346 20.936C49.4346 21.1813 49.3493 21.3893 49.1786 21.56C49.0186 21.7307 48.8213 21.816 48.5866 21.816ZM54.6135 21.832C53.8028 21.832 53.0348 21.704 52.3095 21.448C51.5948 21.1813 51.0188 20.8293 50.5815 20.392L51.1415 19.48C51.5042 19.8533 51.9895 20.1627 52.5975 20.408C53.2162 20.6533 53.8882 20.776 54.6135 20.776C55.5415 20.776 56.2508 20.5733 56.7415 20.168C57.2428 19.7627 57.4935 19.2187 57.4935 18.536C57.4935 17.8533 57.2482 17.3093 56.7575 16.904C56.2775 16.4987 55.5148 16.296 54.4695 16.296L53.6695 16.296L53.6695 15.448L57.1255 11.112L57.2855 11.56L51.0455 11.56L51.0455 10.536L58.2455 10.536L58.2455 11.352L54.7895 15.688L54.2295 15.32L54.6615 15.32C56.0055 15.32 57.0082 15.6187 57.6695 16.216C58.3415 16.8133 58.6775 17.5813 58.6775 18.52C58.6775 19.1493 58.5282 19.7147 58.2295 20.216C57.9308 20.7173 57.4775 21.112 56.8695 21.4C56.2722 21.688 55.5202 21.832 54.6135 21.832ZM65.4802 24.84L65.4802 9.864L66.5363 9.864L66.5363 24.84L65.4802 24.84ZM77.6349 21.832C76.7389 21.832 75.9655 21.704 75.3149 21.448C74.6749 21.192 74.1789 20.824 73.8269 20.344C73.4855 19.8533 73.3149 19.2773 73.3149 18.616C73.3149 17.976 73.4802 17.432 73.8109 16.984C74.1522 16.5253 74.6429 16.1733 75.2829 15.928C75.9335 15.6827 76.7175 15.56 77.6349 15.56C78.5415 15.56 79.3202 15.6827 79.9709 15.928C80.6215 16.1733 81.1175 16.5253 81.4589 16.984C81.8109 17.432 81.9869 17.976 81.9869 18.616C81.9869 19.2773 81.8109 19.8533 81.4589 20.344C81.1069 20.824 80.6055 21.192 79.9549 21.448C79.3042 21.704 78.5309 21.832 77.6349 21.832ZM77.6349 20.856C78.6269 20.856 79.4002 20.6533 79.9549 20.248C80.5202 19.8427 80.8029 19.2933 80.8029 18.6C80.8029 17.9067 80.5202 17.3627 79.9549 16.968C79.4002 16.5627 78.6269 16.36 77.6349 16.36C76.6429 16.36 75.8695 16.5627 75.3149 16.968C74.7602 17.3627 74.4829 17.9067 74.4829 18.6C74.4829 19.2933 74.7602 19.8427 75.3149 20.248C75.8695 20.6533 76.6429 20.856 77.6349 20.856ZM77.6349 16.216C76.8029 16.216 76.0935 16.104 75.5069 15.88C74.9309 15.656 74.4882 15.336 74.1789 14.92C73.8695 14.4933 73.7149 13.9867 73.7149 13.4C73.7149 12.7813 73.8749 12.2533 74.1949 11.816C74.5255 11.368 74.9842 11.0267 75.5709 10.792C76.1575 10.5573 76.8455 10.44 77.6349 10.44C78.4242 10.44 79.1122 10.5573 79.6989 10.792C80.2962 11.0267 80.7602 11.368 81.0909 11.816C81.4215 12.2533 81.5869 12.7813 81.5869 13.4C81.5869 13.9867 81.4322 14.4933 81.1229 14.92C80.8135 15.336 80.3602 15.656 79.7629 15.88C79.1762 16.104 78.4669 16.216 77.6349 16.216ZM77.6349 15.448C78.5095 15.448 79.1922 15.2667 79.6829 14.904C80.1735 14.5413 80.4189 14.056 80.4189 13.448C80.4189 12.808 80.1629 12.312 79.6509 11.96C79.1495 11.5973 78.4775 11.416 77.6349 11.416C76.7922 11.416 76.1202 11.5973 75.6189 11.96C75.1175 12.312 74.8669 12.8027 74.8669 13.432C74.8669 14.0507 75.1069 14.5413 75.5869 14.904C76.0775 15.2667 76.7602 15.448 77.6349 15.448ZM88.174 21.832C87.182 21.832 86.3447 21.6133 85.662 21.176C84.9793 20.728 84.462 20.088 84.11 19.256C83.758 18.4133 83.582 17.4053 83.582 16.232C83.582 14.9627 83.7953 13.9013 84.222 13.048C84.6593 12.184 85.262 11.5333 86.03 11.096C86.798 10.6587 87.6887 10.44 88.702 10.44C89.2033 10.44 89.6833 10.488 90.142 10.584C90.6007 10.68 91.006 10.8347 91.358 11.048L90.894 11.976C90.606 11.784 90.2753 11.6507 89.902 11.576C89.5287 11.4907 89.134 11.448 88.718 11.448C87.5127 11.448 86.5473 11.832 85.822 12.6C85.1073 13.368 84.75 14.5147 84.75 16.04C84.75 16.2747 84.7607 16.568 84.782 16.92C84.814 17.2613 84.878 17.6027 84.974 17.944L84.574 17.64C84.6913 17.0853 84.9207 16.616 85.262 16.232C85.6033 15.8373 86.03 15.5387 86.542 15.336C87.054 15.1333 87.614 15.032 88.222 15.032C88.9687 15.032 89.6247 15.1707 90.19 15.448C90.7553 15.7253 91.198 16.1147 91.518 16.616C91.838 17.1173 91.998 17.7093 91.998 18.392C91.998 19.0853 91.8327 19.6933 91.502 20.216C91.1713 20.728 90.7127 21.128 90.126 21.416C89.55 21.6933 88.8993 21.832 88.174 21.832ZM88.126 20.856C88.6593 20.856 89.1287 20.76 89.534 20.568C89.95 20.3653 90.2753 20.0827 90.51 19.72C90.7447 19.3467 90.862 18.9147 90.862 18.424C90.862 17.688 90.606 17.1013 90.094 16.664C89.5927 16.2267 88.91 16.008 88.046 16.008C87.47 16.008 86.9687 16.1147 86.542 16.328C86.1153 16.5413 85.7793 16.8347 85.534 17.208C85.2887 17.5707 85.166 17.9867 85.166 18.456C85.166 18.8613 85.278 19.2507 85.502 19.624C85.726 19.9867 86.0567 20.2853 86.494 20.52C86.942 20.744 87.486 20.856 88.126 20.856ZM94.3522 21.816C94.1176 21.816 93.9149 21.7307 93.7442 21.56C93.5843 21.3893 93.5042 21.1813 93.5042 20.936C93.5042 20.68 93.5843 20.472 93.7442 20.312C93.9149 20.152 94.1176 20.072 94.3522 20.072C94.5869 20.072 94.7842 20.152 94.9443 20.312C95.1149 20.472 95.2002 20.68 95.2002 20.936C95.2002 21.1813 95.1149 21.3893 94.9443 21.56C94.7842 21.7307 94.5869 21.816 94.3522 21.816ZM100.415 21.832C99.6149 21.832 98.8522 21.704 98.1269 21.448C97.4015 21.1813 96.8255 20.8293 96.3989 20.392L96.9589 19.48C97.3109 19.8533 97.7909 20.1627 98.3989 20.408C99.0175 20.6533 99.6842 20.776 100.399 20.776C101.348 20.776 102.068 20.568 102.559 20.152C103.06 19.7253 103.311 19.1707 103.311 18.488C103.311 18.008 103.194 17.5973 102.959 17.256C102.735 16.904 102.351 16.632 101.807 16.44C101.263 16.248 100.516 16.152 99.5669 16.152L97.1829 16.152L97.7589 10.536L103.887 10.536L103.887 11.56L98.2229 11.56L98.8149 11L98.3189 15.704L97.7269 15.128L99.8229 15.128C100.954 15.128 101.86 15.2667 102.543 15.544C103.226 15.8213 103.716 16.2107 104.015 16.712C104.324 17.2027 104.479 17.7787 104.479 18.44C104.479 19.0693 104.33 19.6453 104.031 20.168C103.732 20.68 103.284 21.0853 102.687 21.384C102.09 21.6827 101.332 21.832 100.415 21.832ZM105.655 21.736L105.655 20.92L110.311 16.36C110.738 15.944 111.058 15.5813 111.271 15.272C111.485 14.952 111.629 14.6533 111.703 14.376C111.778 14.0987 111.815 13.8373 111.815 13.592C111.815 12.9413 111.591 12.4293 111.143 12.056C110.706 11.6827 110.055 11.496 109.191 11.496C108.53 11.496 107.943 11.5973 107.431 11.8C106.93 12.0027 106.498 12.3173 106.135 12.744L105.319 12.04C105.757 11.528 106.317 11.1333 106.999 10.856C107.682 10.5787 108.445 10.44 109.287 10.44C110.045 10.44 110.701 10.5627 111.255 10.808C111.81 11.0427 112.237 11.3893 112.535 11.848C112.845 12.3067 112.999 12.8453 112.999 13.464C112.999 13.8267 112.946 14.184 112.839 14.536C112.743 14.888 112.562 15.2613 112.295 15.656C112.039 16.04 111.661 16.4773 111.159 16.968L106.887 21.16L106.567 20.712L113.511 20.712L113.511 21.736L105.655 21.736ZM118.493 21.832C117.693 21.832 116.93 21.704 116.205 21.448C115.48 21.1813 114.904 20.8293 114.477 20.392L115.037 19.48C115.389 19.8533 115.869 20.1627 116.477 20.408C117.096 20.6533 117.762 20.776 118.477 20.776C119.426 20.776 120.146 20.568 120.637 20.152C121.138 19.7253 121.389 19.1707 121.389 18.488C121.389 18.008 121.272 17.5973 121.037 17.256C120.813 16.904 120.429 16.632 119.885 16.44C119.341 16.248 118.594 16.152 117.645 16.152L115.261 16.152L115.837 10.536L121.965 10.536L121.965 11.56L116.301 11.56L116.893 11L116.397 15.704L115.805 15.128L117.901 15.128C119.032 15.128 119.938 15.2667 120.621 15.544C121.304 15.8213 121.794 16.2107 122.093 16.712C122.402 17.2027 122.557 17.7787 122.557 18.44C122.557 19.0693 122.408 19.6453 122.109 20.168C121.81 20.68 121.362 21.0853 120.765 21.384C120.168 21.6827 119.41 21.832 118.493 21.832ZM131.215 21.816C130.522 21.816 129.866 21.72 129.247 21.528C128.628 21.3253 128.143 21.0747 127.791 20.776L128.303 19.88C128.644 20.136 129.082 20.36 129.615 20.552C130.148 20.7333 130.708 20.824 131.295 20.824C132.095 20.824 132.671 20.7013 133.023 20.456C133.375 20.2 133.551 19.864 133.551 19.448C133.551 19.1387 133.45 18.8987 133.247 18.728C133.055 18.5467 132.799 18.4133 132.479 18.328C132.159 18.232 131.802 18.152 131.407 18.088C131.012 18.024 130.618 17.9493 130.223 17.864C129.839 17.7787 129.487 17.656 129.167 17.496C128.847 17.3253 128.586 17.096 128.383 16.808C128.191 16.52 128.095 16.136 128.095 15.656C128.095 15.1973 128.223 14.7867 128.479 14.424C128.735 14.0613 129.108 13.7787 129.599 13.576C130.1 13.3627 130.708 13.256 131.423 13.256C131.967 13.256 132.511 13.3307 133.055 13.48C133.599 13.6187 134.047 13.8053 134.399 14.04L133.903 14.952C133.53 14.696 133.13 14.5147 132.703 14.408C132.276 14.2907 131.85 14.232 131.423 14.232C130.666 14.232 130.106 14.3653 129.743 14.632C129.391 14.888 129.215 15.2187 129.215 15.624C129.215 15.944 129.311 16.1947 129.503 16.376C129.706 16.5573 129.967 16.7013 130.287 16.808C130.618 16.904 130.975 16.984 131.359 17.048C131.754 17.112 132.143 17.192 132.527 17.288C132.922 17.3733 133.279 17.496 133.599 17.656C133.93 17.8053 134.191 18.024 134.383 18.312C134.586 18.5893 134.687 18.9573 134.687 19.416C134.687 19.9067 134.548 20.3333 134.271 20.696C134.004 21.048 133.61 21.3253 133.087 21.528C132.575 21.72 131.951 21.816 131.215 21.816ZM139.427 21.816C138.638 21.816 138.03 21.6027 137.604 21.176C137.177 20.7493 136.964 20.1467 136.964 19.368L136.964 11.48L138.1 11.48L138.1 19.304C138.1 19.7947 138.222 20.1733 138.467 20.44C138.724 20.7067 139.086 20.84 139.555 20.84C140.057 20.84 140.473 20.696 140.803 20.408L141.203 21.224C140.979 21.4267 140.708 21.576 140.387 21.672C140.078 21.768 139.758 21.816 139.427 21.816ZM135.46 14.28L135.46 13.336L140.66 13.336L140.66 14.28L135.46 14.28ZM146.743 21.816C146.029 21.816 145.405 21.6827 144.871 21.416C144.338 21.1493 143.922 20.7493 143.624 20.216C143.336 19.6827 143.191 19.016 143.191 18.216L143.191 13.336L144.327 13.336L144.327 18.088C144.327 18.984 144.546 19.6613 144.983 20.12C145.432 20.568 146.055 20.792 146.855 20.792C147.442 20.792 147.949 20.6747 148.376 20.44C148.813 20.1947 149.143 19.8427 149.367 19.384C149.602 18.9253 149.719 18.376 149.719 17.736L149.719 13.336L150.855 13.336L150.855 21.736L149.768 21.736L149.768 19.432L149.943 19.848C149.677 20.4667 149.261 20.952 148.695 21.304C148.141 21.6453 147.49 21.816 146.743 21.816ZM157.366 21.816C156.565 21.816 155.845 21.6347 155.206 21.272C154.576 20.9093 154.08 20.408 153.717 19.768C153.355 19.1173 153.173 18.3707 153.173 17.528C153.173 16.6747 153.355 15.928 153.717 15.288C154.08 14.648 154.576 14.152 155.206 13.8C155.845 13.4373 156.565 13.256 157.366 13.256C158.102 13.256 158.758 13.4213 159.333 13.752C159.92 14.0827 160.384 14.568 160.725 15.208C161.077 15.8373 161.254 16.6107 161.254 17.528C161.254 18.4347 161.083 19.208 160.742 19.848C160.4 20.488 159.936 20.9787 159.35 21.32C158.773 21.6507 158.112 21.816 157.366 21.816ZM157.445 20.808C158.043 20.808 158.576 20.6747 159.046 20.408C159.525 20.1307 159.899 19.7467 160.165 19.256C160.443 18.7547 160.581 18.1787 160.581 17.528C160.581 16.8667 160.443 16.2907 160.165 15.8C159.899 15.3093 159.525 14.9307 159.046 14.664C158.576 14.3867 158.043 14.248 157.445 14.248C156.859 14.248 156.331 14.3867 155.862 14.664C155.392 14.9307 155.019 15.3093 154.742 15.8C154.464 16.2907 154.326 16.8667 154.326 17.528C154.326 18.1787 154.464 18.7547 154.742 19.256C155.019 19.7467 155.392 20.1307 155.862 20.408C156.331 20.6747 156.859 20.808 157.445 20.808ZM160.613 21.736L160.613 19.208L160.725 17.512L160.565 15.816L160.565 9.864L161.702 9.864L161.702 21.736L160.613 21.736ZM168.433 21.816C167.559 21.816 166.791 21.6347 166.129 21.272C165.468 20.8987 164.951 20.392 164.577 19.752C164.204 19.1013 164.017 18.36 164.017 17.528C164.017 16.696 164.193 15.96 164.545 15.32C164.908 14.68 165.399 14.1787 166.017 13.816C166.647 13.4427 167.351 13.256 168.129 13.256C168.919 13.256 169.617 13.4373 170.225 13.8C170.844 14.152 171.329 14.6533 171.681 15.304C172.033 15.944 172.209 16.6853 172.209 17.528C172.209 17.5813 172.204 17.64 172.193 17.704C172.193 17.7573 172.193 17.816 172.193 17.88L164.881 17.88L164.881 17.032L171.585 17.032L171.137 17.368C171.137 16.76 171.004 16.2213 170.737 15.752C170.481 15.272 170.129 14.8987 169.681 14.632C169.233 14.3653 168.716 14.232 168.129 14.232C167.553 14.232 167.036 14.3653 166.577 14.632C166.119 14.8987 165.761 15.272 165.505 15.752C165.249 16.232 165.121 16.7813 165.121 17.4L165.121 17.576C165.121 18.216 165.26 18.7813 165.537 19.272C165.825 19.752 166.22 20.1307 166.721 20.408C167.233 20.6747 167.815 20.808 168.465 20.808C168.977 20.808 169.452 20.7173 169.889 20.536C170.337 20.3547 170.721 20.0773 171.041 19.704L171.681 20.44C171.308 20.888 170.839 21.2293 170.273 21.464C169.719 21.6987 169.105 21.816 168.433 21.816ZM178.809 13.256C179.492 13.256 180.09 13.3893 180.602 13.656C181.124 13.912 181.529 14.3067 181.818 14.84C182.116 15.3733 182.266 16.0453 182.266 16.856L182.266 21.736L181.13 21.736L181.13 16.968C181.13 16.0827 180.906 15.416 180.458 14.968C180.02 14.5093 179.402 14.28 178.602 14.28C178.004 14.28 177.482 14.4027 177.033 14.648C176.596 14.8827 176.255 15.2293 176.01 15.688C175.775 16.136 175.658 16.68 175.658 17.32L175.658 21.736L174.521 21.736L174.521 13.336L175.609 13.336L175.609 15.64L175.434 15.208C175.7 14.6 176.127 14.1253 176.714 13.784C177.3 13.432 177.999 13.256 178.809 13.256ZM187.99 21.816C187.201 21.816 186.593 21.6027 186.166 21.176C185.739 20.7493 185.526 20.1467 185.526 19.368L185.526 11.48L186.662 11.48L186.662 19.304C186.662 19.7947 186.785 20.1733 187.03 20.44C187.286 20.7067 187.649 20.84 188.118 20.84C188.619 20.84 189.035 20.696 189.366 20.408L189.766 21.224C189.542 21.4267 189.27 21.576 188.95 21.672C188.641 21.768 188.321 21.816 187.99 21.816ZM184.022 14.28L184.022 13.336L189.222 13.336L189.222 14.28L184.022 14.28ZM194.09 21.816C193.397 21.816 192.741 21.72 192.122 21.528C191.503 21.3253 191.018 21.0747 190.666 20.776L191.178 19.88C191.519 20.136 191.957 20.36 192.49 20.552C193.023 20.7333 193.583 20.824 194.17 20.824C194.97 20.824 195.546 20.7013 195.898 20.456C196.25 20.2 196.426 19.864 196.426 19.448C196.426 19.1387 196.325 18.8987 196.122 18.728C195.93 18.5467 195.674 18.4133 195.354 18.328C195.034 18.232 194.677 18.152 194.282 18.088C193.887 18.024 193.493 17.9493 193.098 17.864C192.714 17.7787 192.362 17.656 192.042 17.496C191.722 17.3253 191.461 17.096 191.258 16.808C191.066 16.52 190.97 16.136 190.97 15.656C190.97 15.1973 191.098 14.7867 191.354 14.424C191.61 14.0613 191.983 13.7787 192.474 13.576C192.975 13.3627 193.583 13.256 194.298 13.256C194.842 13.256 195.386 13.3307 195.93 13.48C196.474 13.6187 196.922 13.8053 197.274 14.04L196.778 14.952C196.405 14.696 196.005 14.5147 195.578 14.408C195.151 14.2907 194.725 14.232 194.298 14.232C193.541 14.232 192.981 14.3653 192.618 14.632C192.266 14.888 192.09 15.2187 192.09 15.624C192.09 15.944 192.186 16.1947 192.378 16.376C192.581 16.5573 192.842 16.7013 193.162 16.808C193.493 16.904 193.85 16.984 194.234 17.048C194.629 17.112 195.018 17.192 195.402 17.288C195.797 17.3733 196.154 17.496 196.474 17.656C196.805 17.8053 197.066 18.024 197.258 18.312C197.461 18.5893 197.562 18.9573 197.562 19.416C197.562 19.9067 197.423 20.3333 197.146 20.696C196.879 21.048 196.485 21.3253 195.962 21.528C195.45 21.72 194.826 21.816 194.09 21.816Z" fill="rgb(18,25,38)" fill-rule="nonzero" />
</svg>
