<svg viewBox="0 0 198 32" xmlns="http://www.w3.org/2000/svg" xmlns:xlink="http://www.w3.org/1999/xlink" width="198.000000" height="32.000000" fill="none" customFrame="#000000">
	<defs>
		<clipPath id="clipPath_0">
			<rect width="32.000000" height="32.000000" x="0.000000" y="0.000000" fill="rgb(255,255,255)" />
		</clipPath>
	</defs>
	<rect id="rating" width="198.000000" height="32.000000" x="0.000000" y="0.000000" />
	<g id="star" customFrame="url(#clipPath_0)">
		<rect id="star" width="32.000000" height="32.000000" x="0.000000" y="0.000000" fill="rgb(255,255,255)" fill-opacity="0" />
		<g id="vuesax/bold/star">
			<g id="star">
				<path id="Vector" d="M18.3065 4.67978L20.6532 9.37311C20.9732 10.0264 21.8265 10.6531 22.5465 10.7731L26.7999 11.4798C29.5199 11.9331 30.1599 13.9064 28.1999 15.8531L24.8932 19.1598C24.3332 19.7198 24.0265 20.7998 24.1999 21.5731L25.1465 25.6664C25.8932 28.9064 24.1732 30.1598 21.3065 28.4664L17.3199 26.1064C16.5999 25.6798 15.4132 25.6798 14.6799 26.1064L10.6932 28.4664C7.83988 30.1598 6.10655 28.8931 6.85321 25.6664L7.79988 21.5731C7.97321 20.7998 7.66655 19.7198 7.10655 19.1598L3.79988 15.8531C1.85321 13.9064 2.47988 11.9331 5.19988 11.4798L9.45321 10.7731C10.1599 10.6531 11.0132 10.0264 11.3332 9.37311L13.6799 4.67978C14.9599 2.13311 17.0399 2.13311 18.3065 4.67978Z" fill="rgb(77,85,204)" fill-rule="nonzero" />
				<path id="Vector" opacity="0" transform="matrix(-1,-1.22465e-16,1.22465e-16,-1,32,32)" />
			</g>
		</g>
	</g>
	<path id="4.7 | 66.255 students" d="M36.64 18.792L36.64 17.96L42.576 10.536L43.856 10.536L37.968 17.96L37.344 17.768L46.352 17.768L46.352 18.792L36.64 18.792ZM42.96 21.736L42.96 18.792L42.992 17.768L42.992 15.176L44.112 15.176L44.112 21.736L42.96 21.736ZM48.5866 21.816C48.352 21.816 48.1493 21.7307 47.9786 21.56C47.8186 21.3893 47.7386 21.1813 47.7386 20.936C47.7386 20.68 47.8186 20.472 47.9786 20.312C48.1493 20.152 48.352 20.072 48.5866 20.072C48.8213 20.072 49.0186 20.152 49.1786 20.312C49.3493 20.472 49.4346 20.68 49.4346 20.936C49.4346 21.1813 49.3493 21.3893 49.1786 21.56C49.0186 21.7307 48.8213 21.816 48.5866 21.816ZM52.8937 21.736L57.7257 11.048L58.0778 11.56L51.1497 11.56L51.7417 11L51.7417 13.656L50.6058 13.656L50.6058 10.536L58.8298 10.536L58.8298 11.352L54.1418 21.736L52.8937 21.736ZM65.5271 24.84L65.5271 9.864L66.5831 9.864L66.5831 24.84L65.5271 24.84ZM78.0177 21.832C77.0257 21.832 76.1884 21.6133 75.5058 21.176C74.8231 20.728 74.3058 20.088 73.9538 19.256C73.6017 18.4133 73.4258 17.4053 73.4258 16.232C73.4258 14.9627 73.6391 13.9013 74.0658 13.048C74.5031 12.184 75.1058 11.5333 75.8737 11.096C76.6418 10.6587 77.5324 10.44 78.5457 10.44C79.0471 10.44 79.5271 10.488 79.9857 10.584C80.4444 10.68 80.8497 10.8347 81.2018 11.048L80.7377 11.976C80.4498 11.784 80.1191 11.6507 79.7458 11.576C79.3724 11.4907 78.9778 11.448 78.5618 11.448C77.3564 11.448 76.3911 11.832 75.6657 12.6C74.9511 13.368 74.5938 14.5147 74.5938 16.04C74.5938 16.2747 74.6044 16.568 74.6257 16.92C74.6577 17.2613 74.7217 17.6027 74.8177 17.944L74.4178 17.64C74.5351 17.0853 74.7644 16.616 75.1058 16.232C75.4471 15.8373 75.8737 15.5387 76.3857 15.336C76.8978 15.1333 77.4577 15.032 78.0658 15.032C78.8124 15.032 79.4684 15.1707 80.0338 15.448C80.5991 15.7253 81.0417 16.1147 81.3618 16.616C81.6817 17.1173 81.8418 17.7093 81.8418 18.392C81.8418 19.0853 81.6764 19.6933 81.3457 20.216C81.0151 20.728 80.5564 21.128 79.9697 21.416C79.3938 21.6933 78.7431 21.832 78.0177 21.832ZM77.9697 20.856C78.5031 20.856 78.9724 20.76 79.3777 20.568C79.7937 20.3653 80.1191 20.0827 80.3538 19.72C80.5884 19.3467 80.7057 18.9147 80.7057 18.424C80.7057 17.688 80.4498 17.1013 79.9378 16.664C79.4364 16.2267 78.7538 16.008 77.8898 16.008C77.3138 16.008 76.8124 16.1147 76.3857 16.328C75.9591 16.5413 75.6231 16.8347 75.3777 17.208C75.1324 17.5707 75.0098 17.9867 75.0098 18.456C75.0098 18.8613 75.1217 19.2507 75.3457 19.624C75.5697 19.9867 75.9004 20.2853 76.3378 20.52C76.7858 20.744 77.3298 20.856 77.9697 20.856ZM87.7677 21.832C86.7757 21.832 85.9384 21.6133 85.2558 21.176C84.5731 20.728 84.0558 20.088 83.7038 19.256C83.3517 18.4133 83.1758 17.4053 83.1758 16.232C83.1758 14.9627 83.3891 13.9013 83.8158 13.048C84.2531 12.184 84.8558 11.5333 85.6237 11.096C86.3918 10.6587 87.2824 10.44 88.2957 10.44C88.7971 10.44 89.2771 10.488 89.7357 10.584C90.1944 10.68 90.5997 10.8347 90.9518 11.048L90.4877 11.976C90.1998 11.784 89.8691 11.6507 89.4958 11.576C89.1224 11.4907 88.7278 11.448 88.3118 11.448C87.1064 11.448 86.1411 11.832 85.4157 12.6C84.7011 13.368 84.3438 14.5147 84.3438 16.04C84.3438 16.2747 84.3544 16.568 84.3757 16.92C84.4077 17.2613 84.4717 17.6027 84.5677 17.944L84.1678 17.64C84.2851 17.0853 84.5144 16.616 84.8558 16.232C85.1971 15.8373 85.6237 15.5387 86.1357 15.336C86.6478 15.1333 87.2077 15.032 87.8158 15.032C88.5624 15.032 89.2184 15.1707 89.7838 15.448C90.3491 15.7253 90.7917 16.1147 91.1118 16.616C91.4317 17.1173 91.5918 17.7093 91.5918 18.392C91.5918 19.0853 91.4264 19.6933 91.0957 20.216C90.7651 20.728 90.3064 21.128 89.7197 21.416C89.1438 21.6933 88.4931 21.832 87.7677 21.832ZM87.7197 20.856C88.2531 20.856 88.7224 20.76 89.1277 20.568C89.5437 20.3653 89.8691 20.0827 90.1038 19.72C90.3384 19.3467 90.4557 18.9147 90.4557 18.424C90.4557 17.688 90.1998 17.1013 89.6878 16.664C89.1864 16.2267 88.5038 16.008 87.6398 16.008C87.0638 16.008 86.5624 16.1147 86.1357 16.328C85.7091 16.5413 85.3731 16.8347 85.1277 17.208C84.8824 17.5707 84.7598 17.9867 84.7598 18.456C84.7598 18.8613 84.8717 19.2507 85.0957 19.624C85.3197 19.9867 85.6504 20.2853 86.0878 20.52C86.5358 20.744 87.0798 20.856 87.7197 20.856ZM93.946 21.816C93.7113 21.816 93.5087 21.7307 93.338 21.56C93.178 21.3893 93.098 21.1813 93.098 20.936C93.098 20.68 93.178 20.472 93.338 20.312C93.5087 20.152 93.7113 20.072 93.946 20.072C94.1807 20.072 94.378 20.152 94.538 20.312C94.7087 20.472 94.794 20.68 94.794 20.936C94.794 21.1813 94.7087 21.3893 94.538 21.56C94.378 21.7307 94.1807 21.816 93.946 21.816ZM96.4209 21.736L96.4209 20.92L101.077 16.36C101.504 15.944 101.824 15.5813 102.037 15.272C102.25 14.952 102.394 14.6533 102.469 14.376C102.544 14.0987 102.581 13.8373 102.581 13.592C102.581 12.9413 102.357 12.4293 101.909 12.056C101.472 11.6827 100.821 11.496 99.9569 11.496C99.2955 11.496 98.7089 11.5973 98.1969 11.8C97.6955 12.0027 97.2635 12.3173 96.9009 12.744L96.0849 12.04C96.5222 11.528 97.0822 11.1333 97.7649 10.856C98.4475 10.5787 99.2102 10.44 100.053 10.44C100.81 10.44 101.466 10.5627 102.021 10.808C102.576 11.0427 103.002 11.3893 103.301 11.848C103.61 12.3067 103.765 12.8453 103.765 13.464C103.765 13.8267 103.712 14.184 103.605 14.536C103.509 14.888 103.328 15.2613 103.061 15.656C102.805 16.04 102.426 16.4773 101.925 16.968L97.6529 21.16L97.3329 20.712L104.277 20.712L104.277 21.736L96.4209 21.736ZM109.259 21.832C108.459 21.832 107.696 21.704 106.971 21.448C106.245 21.1813 105.669 20.8293 105.243 20.392L105.803 19.48C106.155 19.8533 106.635 20.1627 107.243 20.408C107.861 20.6533 108.528 20.776 109.243 20.776C110.192 20.776 110.912 20.568 111.403 20.152C111.904 19.7253 112.155 19.1707 112.155 18.488C112.155 18.008 112.037 17.5973 111.803 17.256C111.579 16.904 111.195 16.632 110.651 16.44C110.107 16.248 109.36 16.152 108.411 16.152L106.027 16.152L106.603 10.536L112.731 10.536L112.731 11.56L107.067 11.56L107.659 11L107.163 15.704L106.571 15.128L108.667 15.128C109.797 15.128 110.704 15.2667 111.387 15.544C112.069 15.8213 112.56 16.2107 112.859 16.712C113.168 17.2027 113.323 17.7787 113.323 18.44C113.323 19.0693 113.173 19.6453 112.875 20.168C112.576 20.68 112.128 21.0853 111.531 21.384C110.933 21.6827 110.176 21.832 109.259 21.832ZM118.243 21.832C117.443 21.832 116.68 21.704 115.955 21.448C115.23 21.1813 114.654 20.8293 114.227 20.392L114.787 19.48C115.139 19.8533 115.619 20.1627 116.227 20.408C116.846 20.6533 117.512 20.776 118.227 20.776C119.176 20.776 119.896 20.568 120.387 20.152C120.888 19.7253 121.139 19.1707 121.139 18.488C121.139 18.008 121.022 17.5973 120.787 17.256C120.563 16.904 120.179 16.632 119.635 16.44C119.091 16.248 118.344 16.152 117.395 16.152L115.011 16.152L115.587 10.536L121.715 10.536L121.715 11.56L116.051 11.56L116.643 11L116.147 15.704L115.555 15.128L117.651 15.128C118.782 15.128 119.688 15.2667 120.371 15.544C121.054 15.8213 121.544 16.2107 121.843 16.712C122.152 17.2027 122.307 17.7787 122.307 18.44C122.307 19.0693 122.158 19.6453 121.859 20.168C121.56 20.68 121.112 21.0853 120.515 21.384C119.918 21.6827 119.16 21.832 118.243 21.832ZM130.965 21.816C130.272 21.816 129.616 21.72 128.997 21.528C128.378 21.3253 127.893 21.0747 127.541 20.776L128.053 19.88C128.394 20.136 128.832 20.36 129.365 20.552C129.898 20.7333 130.458 20.824 131.045 20.824C131.845 20.824 132.421 20.7013 132.773 20.456C133.125 20.2 133.301 19.864 133.301 19.448C133.301 19.1387 133.2 18.8987 132.997 18.728C132.805 18.5467 132.549 18.4133 132.229 18.328C131.909 18.232 131.552 18.152 131.157 18.088C130.762 18.024 130.368 17.9493 129.973 17.864C129.589 17.7787 129.237 17.656 128.917 17.496C128.597 17.3253 128.336 17.096 128.133 16.808C127.941 16.52 127.845 16.136 127.845 15.656C127.845 15.1973 127.973 14.7867 128.229 14.424C128.485 14.0613 128.858 13.7787 129.349 13.576C129.85 13.3627 130.458 13.256 131.173 13.256C131.717 13.256 132.261 13.3307 132.805 13.48C133.349 13.6187 133.797 13.8053 134.149 14.04L133.653 14.952C133.28 14.696 132.88 14.5147 132.453 14.408C132.026 14.2907 131.6 14.232 131.173 14.232C130.416 14.232 129.856 14.3653 129.493 14.632C129.141 14.888 128.965 15.2187 128.965 15.624C128.965 15.944 129.061 16.1947 129.253 16.376C129.456 16.5573 129.717 16.7013 130.037 16.808C130.368 16.904 130.725 16.984 131.109 17.048C131.504 17.112 131.893 17.192 132.277 17.288C132.672 17.3733 133.029 17.496 133.349 17.656C133.68 17.8053 133.941 18.024 134.133 18.312C134.336 18.5893 134.437 18.9573 134.437 19.416C134.437 19.9067 134.298 20.3333 134.021 20.696C133.754 21.048 133.36 21.3253 132.837 21.528C132.325 21.72 131.701 21.816 130.965 21.816ZM139.177 21.816C138.388 21.816 137.78 21.6027 137.354 21.176C136.927 20.7493 136.714 20.1467 136.714 19.368L136.714 11.48L137.85 11.48L137.85 19.304C137.85 19.7947 137.972 20.1733 138.217 20.44C138.474 20.7067 138.836 20.84 139.305 20.84C139.807 20.84 140.223 20.696 140.553 20.408L140.953 21.224C140.729 21.4267 140.458 21.576 140.137 21.672C139.828 21.768 139.508 21.816 139.177 21.816ZM135.21 14.28L135.21 13.336L140.41 13.336L140.41 14.28L135.21 14.28ZM146.493 21.816C145.779 21.816 145.155 21.6827 144.621 21.416C144.088 21.1493 143.672 20.7493 143.374 20.216C143.086 19.6827 142.941 19.016 142.941 18.216L142.941 13.336L144.077 13.336L144.077 18.088C144.077 18.984 144.296 19.6613 144.733 20.12C145.182 20.568 145.805 20.792 146.605 20.792C147.192 20.792 147.699 20.6747 148.126 20.44C148.563 20.1947 148.893 19.8427 149.117 19.384C149.352 18.9253 149.469 18.376 149.469 17.736L149.469 13.336L150.605 13.336L150.605 21.736L149.518 21.736L149.518 19.432L149.693 19.848C149.427 20.4667 149.011 20.952 148.445 21.304C147.891 21.6453 147.24 21.816 146.493 21.816ZM157.116 21.816C156.315 21.816 155.595 21.6347 154.956 21.272C154.326 20.9093 153.83 20.408 153.467 19.768C153.105 19.1173 152.923 18.3707 152.923 17.528C152.923 16.6747 153.105 15.928 153.467 15.288C153.83 14.648 154.326 14.152 154.956 13.8C155.595 13.4373 156.315 13.256 157.116 13.256C157.852 13.256 158.508 13.4213 159.083 13.752C159.67 14.0827 160.134 14.568 160.475 15.208C160.827 15.8373 161.004 16.6107 161.004 17.528C161.004 18.4347 160.833 19.208 160.492 19.848C160.15 20.488 159.686 20.9787 159.1 21.32C158.523 21.6507 157.862 21.816 157.116 21.816ZM157.195 20.808C157.793 20.808 158.326 20.6747 158.796 20.408C159.275 20.1307 159.649 19.7467 159.915 19.256C160.193 18.7547 160.331 18.1787 160.331 17.528C160.331 16.8667 160.193 16.2907 159.915 15.8C159.649 15.3093 159.275 14.9307 158.796 14.664C158.326 14.3867 157.793 14.248 157.195 14.248C156.609 14.248 156.081 14.3867 155.612 14.664C155.142 14.9307 154.769 15.3093 154.492 15.8C154.214 16.2907 154.076 16.8667 154.076 17.528C154.076 18.1787 154.214 18.7547 154.492 19.256C154.769 19.7467 155.142 20.1307 155.612 20.408C156.081 20.6747 156.609 20.808 157.195 20.808ZM160.363 21.736L160.363 19.208L160.475 17.512L160.315 15.816L160.315 9.864L161.452 9.864L161.452 21.736L160.363 21.736ZM168.183 21.816C167.309 21.816 166.541 21.6347 165.879 21.272C165.218 20.8987 164.701 20.392 164.327 19.752C163.954 19.1013 163.767 18.36 163.767 17.528C163.767 16.696 163.943 15.96 164.295 15.32C164.658 14.68 165.149 14.1787 165.767 13.816C166.397 13.4427 167.101 13.256 167.879 13.256C168.669 13.256 169.367 13.4373 169.975 13.8C170.594 14.152 171.079 14.6533 171.431 15.304C171.783 15.944 171.959 16.6853 171.959 17.528C171.959 17.5813 171.954 17.64 171.943 17.704C171.943 17.7573 171.943 17.816 171.943 17.88L164.631 17.88L164.631 17.032L171.335 17.032L170.887 17.368C170.887 16.76 170.754 16.2213 170.487 15.752C170.231 15.272 169.879 14.8987 169.431 14.632C168.983 14.3653 168.466 14.232 167.879 14.232C167.303 14.232 166.786 14.3653 166.327 14.632C165.869 14.8987 165.511 15.272 165.255 15.752C164.999 16.232 164.871 16.7813 164.871 17.4L164.871 17.576C164.871 18.216 165.01 18.7813 165.287 19.272C165.575 19.752 165.97 20.1307 166.471 20.408C166.983 20.6747 167.565 20.808 168.215 20.808C168.727 20.808 169.202 20.7173 169.639 20.536C170.087 20.3547 170.471 20.0773 170.791 19.704L171.431 20.44C171.058 20.888 170.589 21.2293 170.023 21.464C169.469 21.6987 168.855 21.816 168.183 21.816ZM178.559 13.256C179.242 13.256 179.84 13.3893 180.352 13.656C180.874 13.912 181.279 14.3067 181.568 14.84C181.866 15.3733 182.016 16.0453 182.016 16.856L182.016 21.736L180.88 21.736L180.88 16.968C180.88 16.0827 180.656 15.416 180.208 14.968C179.77 14.5093 179.152 14.28 178.352 14.28C177.754 14.28 177.232 14.4027 176.783 14.648C176.346 14.8827 176.005 15.2293 175.76 15.688C175.525 16.136 175.408 16.68 175.408 17.32L175.408 21.736L174.271 21.736L174.271 13.336L175.359 13.336L175.359 15.64L175.184 15.208C175.45 14.6 175.877 14.1253 176.464 13.784C177.05 13.432 177.749 13.256 178.559 13.256ZM187.74 21.816C186.951 21.816 186.343 21.6027 185.916 21.176C185.489 20.7493 185.276 20.1467 185.276 19.368L185.276 11.48L186.412 11.48L186.412 19.304C186.412 19.7947 186.535 20.1733 186.78 20.44C187.036 20.7067 187.399 20.84 187.868 20.84C188.369 20.84 188.785 20.696 189.116 20.408L189.516 21.224C189.292 21.4267 189.02 21.576 188.7 21.672C188.391 21.768 188.071 21.816 187.74 21.816ZM183.772 14.28L183.772 13.336L188.972 13.336L188.972 14.28L183.772 14.28ZM193.84 21.816C193.147 21.816 192.491 21.72 191.872 21.528C191.253 21.3253 190.768 21.0747 190.416 20.776L190.928 19.88C191.269 20.136 191.707 20.36 192.24 20.552C192.773 20.7333 193.333 20.824 193.92 20.824C194.72 20.824 195.296 20.7013 195.648 20.456C196 20.2 196.176 19.864 196.176 19.448C196.176 19.1387 196.075 18.8987 195.872 18.728C195.68 18.5467 195.424 18.4133 195.104 18.328C194.784 18.232 194.427 18.152 194.032 18.088C193.637 18.024 193.243 17.9493 192.848 17.864C192.464 17.7787 192.112 17.656 191.792 17.496C191.472 17.3253 191.211 17.096 191.008 16.808C190.816 16.52 190.72 16.136 190.72 15.656C190.72 15.1973 190.848 14.7867 191.104 14.424C191.36 14.0613 191.733 13.7787 192.224 13.576C192.725 13.3627 193.333 13.256 194.048 13.256C194.592 13.256 195.136 13.3307 195.68 13.48C196.224 13.6187 196.672 13.8053 197.024 14.04L196.528 14.952C196.155 14.696 195.755 14.5147 195.328 14.408C194.901 14.2907 194.475 14.232 194.048 14.232C193.291 14.232 192.731 14.3653 192.368 14.632C192.016 14.888 191.84 15.2187 191.84 15.624C191.84 15.944 191.936 16.1947 192.128 16.376C192.331 16.5573 192.592 16.7013 192.912 16.808C193.243 16.904 193.6 16.984 193.984 17.048C194.379 17.112 194.768 17.192 195.152 17.288C195.547 17.3733 195.904 17.496 196.224 17.656C196.555 17.8053 196.816 18.024 197.008 18.312C197.211 18.5893 197.312 18.9573 197.312 19.416C197.312 19.9067 197.173 20.3333 196.896 20.696C196.629 21.048 196.235 21.3253 195.712 21.528C195.2 21.72 194.576 21.816 193.84 21.816Z" fill="rgb(18,25,38)" fill-rule="nonzero" />
</svg>
