<svg viewBox="0 0 200 32" xmlns="http://www.w3.org/2000/svg" xmlns:xlink="http://www.w3.org/1999/xlink" width="200.000000" height="32.000000" fill="none" customFrame="#000000">
	<defs>
		<clipPath id="clipPath_2">
			<rect width="32.000000" height="32.000000" x="0.000000" y="0.000000" fill="rgb(255,255,255)" />
		</clipPath>
	</defs>
	<rect id="rating" width="200.000000" height="32.000000" x="0.000000" y="0.000000" />
	<g id="star" customFrame="url(#clipPath_2)">
		<rect id="star" width="32.000000" height="32.000000" x="0.000000" y="0.000000" fill="rgb(255,255,255)" fill-opacity="0" />
		<g id="vuesax/bold/star">
			<g id="star">
				<path id="Vector" d="M18.3065 4.67978L20.6532 9.37311C20.9732 10.0264 21.8265 10.6531 22.5465 10.7731L26.7999 11.4798C29.5199 11.9331 30.1599 13.9064 28.1999 15.8531L24.8932 19.1598C24.3332 19.7198 24.0265 20.7998 24.1999 21.5731L25.1465 25.6664C25.8932 28.9064 24.1732 30.1598 21.3065 28.4664L17.3199 26.1064C16.5999 25.6798 15.4132 25.6798 14.6799 26.1064L10.6932 28.4664C7.83988 30.1598 6.10655 28.8931 6.85321 25.6664L7.79988 21.5731C7.97321 20.7998 7.66655 19.7198 7.10655 19.1598L3.79988 15.8531C1.85321 13.9064 2.47988 11.9331 5.19988 11.4798L9.45321 10.7731C10.1599 10.6531 11.0132 10.0264 11.3332 9.37311L13.6799 4.67978C14.9599 2.13311 17.0399 2.13311 18.3065 4.67978Z" fill="rgb(77,85,204)" fill-rule="nonzero" />
				<path id="Vector" opacity="0" transform="matrix(-1,-1.22465e-16,1.22465e-16,-1,32,32)" />
			</g>
		</g>
	</g>
	<path id="4.4 | 26.783 students" d="M36.64 18.792L36.64 17.96L42.576 10.536L43.856 10.536L37.968 17.96L37.344 17.768L46.352 17.768L46.352 18.792L36.64 18.792ZM42.96 21.736L42.96 18.792L42.992 17.768L42.992 15.176L44.112 15.176L44.112 21.736L42.96 21.736ZM48.5866 21.816C48.352 21.816 48.1493 21.7307 47.9786 21.56C47.8186 21.3893 47.7386 21.1813 47.7386 20.936C47.7386 20.68 47.8186 20.472 47.9786 20.312C48.1493 20.152 48.352 20.072 48.5866 20.072C48.8213 20.072 49.0186 20.152 49.1786 20.312C49.3493 20.472 49.4346 20.68 49.4346 20.936C49.4346 21.1813 49.3493 21.3893 49.1786 21.56C49.0186 21.7307 48.8213 21.816 48.5866 21.816ZM50.7337 18.792L50.7337 17.96L56.6698 10.536L57.9498 10.536L52.0618 17.96L51.4378 17.768L60.4458 17.768L60.4458 18.792L50.7337 18.792ZM57.0537 21.736L57.0537 18.792L57.0858 17.768L57.0858 15.176L58.2057 15.176L58.2057 21.736L57.0537 21.736ZM66.6834 24.84L66.6834 9.864L67.7394 9.864L67.7394 24.84L66.6834 24.84ZM74.374 21.736L74.374 20.92L79.03 16.36C79.4567 15.944 79.7767 15.5813 79.99 15.272C80.2033 14.952 80.3473 14.6533 80.422 14.376C80.4967 14.0987 80.534 13.8373 80.534 13.592C80.534 12.9413 80.31 12.4293 79.862 12.056C79.4247 11.6827 78.774 11.496 77.91 11.496C77.2487 11.496 76.662 11.5973 76.15 11.8C75.6487 12.0027 75.2167 12.3173 74.854 12.744L74.038 12.04C74.4753 11.528 75.0353 11.1333 75.718 10.856C76.4007 10.5787 77.1633 10.44 78.006 10.44C78.7633 10.44 79.4193 10.5627 79.974 10.808C80.5287 11.0427 80.9553 11.3893 81.254 11.848C81.5633 12.3067 81.718 12.8453 81.718 13.464C81.718 13.8267 81.6647 14.184 81.558 14.536C81.462 14.888 81.2807 15.2613 81.014 15.656C80.758 16.04 80.3793 16.4773 79.878 16.968L75.606 21.16L75.286 20.712L82.23 20.712L82.23 21.736L74.374 21.736ZM88.2365 21.832C87.2445 21.832 86.4072 21.6133 85.7245 21.176C85.0418 20.728 84.5245 20.088 84.1725 19.256C83.8205 18.4133 83.6445 17.4053 83.6445 16.232C83.6445 14.9627 83.8578 13.9013 84.2845 13.048C84.7218 12.184 85.3245 11.5333 86.0925 11.096C86.8605 10.6587 87.7512 10.44 88.7645 10.44C89.2658 10.44 89.7458 10.488 90.2045 10.584C90.6632 10.68 91.0685 10.8347 91.4205 11.048L90.9565 11.976C90.6685 11.784 90.3378 11.6507 89.9645 11.576C89.5912 11.4907 89.1965 11.448 88.7805 11.448C87.5752 11.448 86.6098 11.832 85.8845 12.6C85.1698 13.368 84.8125 14.5147 84.8125 16.04C84.8125 16.2747 84.8232 16.568 84.8445 16.92C84.8765 17.2613 84.9405 17.6027 85.0365 17.944L84.6365 17.64C84.7538 17.0853 84.9832 16.616 85.3245 16.232C85.6658 15.8373 86.0925 15.5387 86.6045 15.336C87.1165 15.1333 87.6765 15.032 88.2845 15.032C89.0312 15.032 89.6872 15.1707 90.2525 15.448C90.8178 15.7253 91.2605 16.1147 91.5805 16.616C91.9005 17.1173 92.0605 17.7093 92.0605 18.392C92.0605 19.0853 91.8952 19.6933 91.5645 20.216C91.2338 20.728 90.7752 21.128 90.1885 21.416C89.6125 21.6933 88.9618 21.832 88.2365 21.832ZM88.1885 20.856C88.7218 20.856 89.1912 20.76 89.5965 20.568C90.0125 20.3653 90.3378 20.0827 90.5725 19.72C90.8072 19.3467 90.9245 18.9147 90.9245 18.424C90.9245 17.688 90.6685 17.1013 90.1565 16.664C89.6552 16.2267 88.9725 16.008 88.1085 16.008C87.5325 16.008 87.0312 16.1147 86.6045 16.328C86.1778 16.5413 85.8418 16.8347 85.5965 17.208C85.3512 17.5707 85.2285 17.9867 85.2285 18.456C85.2285 18.8613 85.3405 19.2507 85.5645 19.624C85.7885 19.9867 86.1192 20.2853 86.5565 20.52C87.0045 20.744 87.5485 20.856 88.1885 20.856ZM94.4147 21.816C94.1801 21.816 93.9774 21.7307 93.8067 21.56C93.6468 21.3893 93.5667 21.1813 93.5667 20.936C93.5667 20.68 93.6468 20.472 93.8067 20.312C93.9774 20.152 94.1801 20.072 94.4147 20.072C94.6494 20.072 94.8467 20.152 95.0068 20.312C95.1774 20.472 95.2627 20.68 95.2627 20.936C95.2627 21.1813 95.1774 21.3893 95.0068 21.56C94.8467 21.7307 94.6494 21.816 94.4147 21.816ZM98.7219 21.736L103.554 11.048L103.906 11.56L96.9779 11.56L97.5699 11L97.5699 13.656L96.4339 13.656L96.4339 10.536L104.658 10.536L104.658 11.352L99.9699 21.736L98.7219 21.736ZM110.135 21.832C109.239 21.832 108.466 21.704 107.815 21.448C107.175 21.192 106.679 20.824 106.327 20.344C105.986 19.8533 105.815 19.2773 105.815 18.616C105.815 17.976 105.98 17.432 106.311 16.984C106.652 16.5253 107.143 16.1733 107.783 15.928C108.434 15.6827 109.218 15.56 110.135 15.56C111.042 15.56 111.82 15.6827 112.471 15.928C113.122 16.1733 113.618 16.5253 113.959 16.984C114.311 17.432 114.487 17.976 114.487 18.616C114.487 19.2773 114.311 19.8533 113.959 20.344C113.607 20.824 113.106 21.192 112.455 21.448C111.804 21.704 111.031 21.832 110.135 21.832ZM110.135 20.856C111.127 20.856 111.9 20.6533 112.455 20.248C113.02 19.8427 113.303 19.2933 113.303 18.6C113.303 17.9067 113.02 17.3627 112.455 16.968C111.9 16.5627 111.127 16.36 110.135 16.36C109.143 16.36 108.37 16.5627 107.815 16.968C107.26 17.3627 106.983 17.9067 106.983 18.6C106.983 19.2933 107.26 19.8427 107.815 20.248C108.37 20.6533 109.143 20.856 110.135 20.856ZM110.135 16.216C109.303 16.216 108.594 16.104 108.007 15.88C107.431 15.656 106.988 15.336 106.679 14.92C106.37 14.4933 106.215 13.9867 106.215 13.4C106.215 12.7813 106.375 12.2533 106.695 11.816C107.026 11.368 107.484 11.0267 108.071 10.792C108.658 10.5573 109.346 10.44 110.135 10.44C110.924 10.44 111.612 10.5573 112.199 10.792C112.796 11.0267 113.26 11.368 113.591 11.816C113.922 12.2533 114.087 12.7813 114.087 13.4C114.087 13.9867 113.932 14.4933 113.623 14.92C113.314 15.336 112.86 15.656 112.263 15.88C111.676 16.104 110.967 16.216 110.135 16.216ZM110.135 15.448C111.01 15.448 111.692 15.2667 112.183 14.904C112.674 14.5413 112.919 14.056 112.919 13.448C112.919 12.808 112.663 12.312 112.151 11.96C111.65 11.5973 110.978 11.416 110.135 11.416C109.292 11.416 108.62 11.5973 108.119 11.96C107.618 12.312 107.367 12.8027 107.367 13.432C107.367 14.0507 107.607 14.5413 108.087 14.904C108.578 15.2667 109.26 15.448 110.135 15.448ZM119.426 21.832C118.615 21.832 117.847 21.704 117.122 21.448C116.407 21.1813 115.831 20.8293 115.394 20.392L115.954 19.48C116.317 19.8533 116.802 20.1627 117.41 20.408C118.029 20.6533 118.701 20.776 119.426 20.776C120.354 20.776 121.063 20.5733 121.554 20.168C122.055 19.7627 122.306 19.2187 122.306 18.536C122.306 17.8533 122.061 17.3093 121.57 16.904C121.09 16.4987 120.327 16.296 119.282 16.296L118.482 16.296L118.482 15.448L121.938 11.112L122.098 11.56L115.858 11.56L115.858 10.536L123.058 10.536L123.058 11.352L119.602 15.688L119.042 15.32L119.474 15.32C120.818 15.32 121.821 15.6187 122.482 16.216C123.154 16.8133 123.49 17.5813 123.49 18.52C123.49 19.1493 123.341 19.7147 123.042 20.216C122.743 20.7173 122.29 21.112 121.682 21.4C121.085 21.688 120.333 21.832 119.426 21.832ZM132.309 21.816C131.615 21.816 130.959 21.72 130.341 21.528C129.722 21.3253 129.237 21.0747 128.885 20.776L129.397 19.88C129.738 20.136 130.175 20.36 130.709 20.552C131.242 20.7333 131.802 20.824 132.389 20.824C133.189 20.824 133.765 20.7013 134.117 20.456C134.469 20.2 134.645 19.864 134.645 19.448C134.645 19.1387 134.543 18.8987 134.341 18.728C134.149 18.5467 133.893 18.4133 133.573 18.328C133.253 18.232 132.895 18.152 132.501 18.088C132.106 18.024 131.711 17.9493 131.317 17.864C130.933 17.7787 130.581 17.656 130.261 17.496C129.941 17.3253 129.679 17.096 129.477 16.808C129.285 16.52 129.189 16.136 129.189 15.656C129.189 15.1973 129.317 14.7867 129.573 14.424C129.829 14.0613 130.202 13.7787 130.693 13.576C131.194 13.3627 131.802 13.256 132.517 13.256C133.061 13.256 133.605 13.3307 134.149 13.48C134.693 13.6187 135.141 13.8053 135.493 14.04L134.997 14.952C134.623 14.696 134.223 14.5147 133.797 14.408C133.37 14.2907 132.943 14.232 132.517 14.232C131.759 14.232 131.199 14.3653 130.837 14.632C130.485 14.888 130.309 15.2187 130.309 15.624C130.309 15.944 130.405 16.1947 130.597 16.376C130.799 16.5573 131.061 16.7013 131.381 16.808C131.711 16.904 132.069 16.984 132.453 17.048C132.847 17.112 133.237 17.192 133.621 17.288C134.015 17.3733 134.373 17.496 134.693 17.656C135.023 17.8053 135.285 18.024 135.477 18.312C135.679 18.5893 135.781 18.9573 135.781 19.416C135.781 19.9067 135.642 20.3333 135.365 20.696C135.098 21.048 134.703 21.3253 134.181 21.528C133.669 21.72 133.045 21.816 132.309 21.816ZM140.521 21.816C139.732 21.816 139.124 21.6027 138.697 21.176C138.271 20.7493 138.057 20.1467 138.057 19.368L138.057 11.48L139.193 11.48L139.193 19.304C139.193 19.7947 139.316 20.1733 139.561 20.44C139.817 20.7067 140.18 20.84 140.649 20.84C141.151 20.84 141.567 20.696 141.897 20.408L142.297 21.224C142.073 21.4267 141.801 21.576 141.481 21.672C141.172 21.768 140.852 21.816 140.521 21.816ZM136.553 14.28L136.553 13.336L141.753 13.336L141.753 14.28L136.553 14.28ZM147.837 21.816C147.123 21.816 146.499 21.6827 145.965 21.416C145.432 21.1493 145.016 20.7493 144.717 20.216C144.429 19.6827 144.285 19.016 144.285 18.216L144.285 13.336L145.421 13.336L145.421 18.088C145.421 18.984 145.64 19.6613 146.077 20.12C146.525 20.568 147.149 20.792 147.949 20.792C148.536 20.792 149.043 20.6747 149.469 20.44C149.907 20.1947 150.237 19.8427 150.461 19.384C150.696 18.9253 150.813 18.376 150.813 17.736L150.813 13.336L151.949 13.336L151.949 21.736L150.861 21.736L150.861 19.432L151.037 19.848C150.771 20.4667 150.355 20.952 149.789 21.304C149.235 21.6453 148.584 21.816 147.837 21.816ZM158.459 21.816C157.659 21.816 156.939 21.6347 156.299 21.272C155.67 20.9093 155.174 20.408 154.811 19.768C154.449 19.1173 154.267 18.3707 154.267 17.528C154.267 16.6747 154.449 15.928 154.811 15.288C155.174 14.648 155.67 14.152 156.299 13.8C156.939 13.4373 157.659 13.256 158.459 13.256C159.195 13.256 159.851 13.4213 160.427 13.752C161.014 14.0827 161.478 14.568 161.819 15.208C162.171 15.8373 162.347 16.6107 162.347 17.528C162.347 18.4347 162.177 19.208 161.835 19.848C161.494 20.488 161.03 20.9787 160.443 21.32C159.867 21.6507 159.206 21.816 158.459 21.816ZM158.539 20.808C159.137 20.808 159.67 20.6747 160.139 20.408C160.619 20.1307 160.993 19.7467 161.259 19.256C161.537 18.7547 161.675 18.1787 161.675 17.528C161.675 16.8667 161.537 16.2907 161.259 15.8C160.993 15.3093 160.619 14.9307 160.139 14.664C159.67 14.3867 159.137 14.248 158.539 14.248C157.953 14.248 157.425 14.3867 156.955 14.664C156.486 14.9307 156.113 15.3093 155.835 15.8C155.558 16.2907 155.419 16.8667 155.419 17.528C155.419 18.1787 155.558 18.7547 155.835 19.256C156.113 19.7467 156.486 20.1307 156.955 20.408C157.425 20.6747 157.953 20.808 158.539 20.808ZM161.707 21.736L161.707 19.208L161.819 17.512L161.659 15.816L161.659 9.864L162.795 9.864L162.795 21.736L161.707 21.736ZM169.527 21.816C168.652 21.816 167.884 21.6347 167.223 21.272C166.562 20.8987 166.044 20.392 165.671 19.752C165.298 19.1013 165.111 18.36 165.111 17.528C165.111 16.696 165.287 15.96 165.639 15.32C166.002 14.68 166.492 14.1787 167.111 13.816C167.74 13.4427 168.444 13.256 169.223 13.256C170.012 13.256 170.711 13.4373 171.319 13.8C171.938 14.152 172.423 14.6533 172.775 15.304C173.127 15.944 173.303 16.6853 173.303 17.528C173.303 17.5813 173.298 17.64 173.287 17.704C173.287 17.7573 173.287 17.816 173.287 17.88L165.975 17.88L165.975 17.032L172.679 17.032L172.231 17.368C172.231 16.76 172.098 16.2213 171.831 15.752C171.575 15.272 171.223 14.8987 170.775 14.632C170.327 14.3653 169.81 14.232 169.223 14.232C168.647 14.232 168.13 14.3653 167.671 14.632C167.212 14.8987 166.855 15.272 166.599 15.752C166.343 16.232 166.215 16.7813 166.215 17.4L166.215 17.576C166.215 18.216 166.354 18.7813 166.631 19.272C166.919 19.752 167.314 20.1307 167.815 20.408C168.327 20.6747 168.908 20.808 169.559 20.808C170.071 20.808 170.546 20.7173 170.983 20.536C171.431 20.3547 171.815 20.0773 172.135 19.704L172.775 20.44C172.402 20.888 171.932 21.2293 171.367 21.464C170.812 21.6987 170.199 21.816 169.527 21.816ZM179.903 13.256C180.586 13.256 181.183 13.3893 181.695 13.656C182.218 13.912 182.623 14.3067 182.911 14.84C183.21 15.3733 183.359 16.0453 183.359 16.856L183.359 21.736L182.223 21.736L182.223 16.968C182.223 16.0827 181.999 15.416 181.551 14.968C181.114 14.5093 180.495 14.28 179.695 14.28C179.098 14.28 178.575 14.4027 178.127 14.648C177.69 14.8827 177.349 15.2293 177.103 15.688C176.869 16.136 176.751 16.68 176.751 17.32L176.751 21.736L175.615 21.736L175.615 13.336L176.703 13.336L176.703 15.64L176.527 15.208C176.794 14.6 177.221 14.1253 177.807 13.784C178.394 13.432 179.093 13.256 179.903 13.256ZM189.084 21.816C188.294 21.816 187.686 21.6027 187.26 21.176C186.833 20.7493 186.62 20.1467 186.62 19.368L186.62 11.48L187.756 11.48L187.756 19.304C187.756 19.7947 187.878 20.1733 188.124 20.44C188.38 20.7067 188.742 20.84 189.212 20.84C189.713 20.84 190.129 20.696 190.46 20.408L190.86 21.224C190.636 21.4267 190.364 21.576 190.044 21.672C189.734 21.768 189.414 21.816 189.084 21.816ZM185.116 14.28L185.116 13.336L190.316 13.336L190.316 14.28L185.116 14.28ZM195.184 21.816C194.49 21.816 193.834 21.72 193.216 21.528C192.597 21.3253 192.112 21.0747 191.76 20.776L192.272 19.88C192.613 20.136 193.05 20.36 193.584 20.552C194.117 20.7333 194.677 20.824 195.264 20.824C196.064 20.824 196.64 20.7013 196.992 20.456C197.344 20.2 197.52 19.864 197.52 19.448C197.52 19.1387 197.418 18.8987 197.216 18.728C197.024 18.5467 196.768 18.4133 196.448 18.328C196.128 18.232 195.77 18.152 195.376 18.088C194.981 18.024 194.586 17.9493 194.192 17.864C193.808 17.7787 193.456 17.656 193.136 17.496C192.816 17.3253 192.554 17.096 192.352 16.808C192.16 16.52 192.064 16.136 192.064 15.656C192.064 15.1973 192.192 14.7867 192.448 14.424C192.704 14.0613 193.077 13.7787 193.568 13.576C194.069 13.3627 194.677 13.256 195.392 13.256C195.936 13.256 196.48 13.3307 197.024 13.48C197.568 13.6187 198.016 13.8053 198.368 14.04L197.872 14.952C197.498 14.696 197.098 14.5147 196.672 14.408C196.245 14.2907 195.818 14.232 195.392 14.232C194.634 14.232 194.074 14.3653 193.712 14.632C193.36 14.888 193.184 15.2187 193.184 15.624C193.184 15.944 193.28 16.1947 193.472 16.376C193.674 16.5573 193.936 16.7013 194.256 16.808C194.586 16.904 194.944 16.984 195.328 17.048C195.722 17.112 196.112 17.192 196.496 17.288C196.89 17.3733 197.248 17.496 197.568 17.656C197.898 17.8053 198.16 18.024 198.352 18.312C198.554 18.5893 198.656 18.9573 198.656 19.416C198.656 19.9067 198.517 20.3333 198.24 20.696C197.973 21.048 197.578 21.3253 197.056 21.528C196.544 21.72 195.92 21.816 195.184 21.816Z" fill="rgb(18,25,38)" fill-rule="nonzero" />
</svg>
