<svg viewBox="0 0 32 32" xmlns="http://www.w3.org/2000/svg" xmlns:xlink="http://www.w3.org/1999/xlink" width="32.000000" height="32.000000" fill="none" customFrame="#000000">
	<rect id="star" width="32.000000" height="32.000000" x="0.000000" y="0.000000" fill="rgb(255,255,255)" fill-opacity="0" />
	<g id="vuesax/bold/star">
		<g id="star">
			<path id="Vector" d="M18.3065 4.67978L20.6532 9.37311C20.9732 10.0264 21.8265 10.6531 22.5465 10.7731L26.7999 11.4798C29.5199 11.9331 30.1599 13.9064 28.1999 15.8531L24.8932 19.1598C24.3332 19.7198 24.0265 20.7998 24.1999 21.5731L25.1465 25.6664C25.8932 28.9064 24.1732 30.1598 21.3065 28.4664L17.3199 26.1064C16.5999 25.6798 15.4132 25.6798 14.6799 26.1064L10.6932 28.4664C7.83988 30.1598 6.10655 28.8931 6.85321 25.6664L7.79988 21.5731C7.97321 20.7998 7.66655 19.7198 7.10655 19.1598L3.79988 15.8531C1.85321 13.9064 2.47988 11.9331 5.19988 11.4798L9.45321 10.7731C10.1599 10.6531 11.0132 10.0264 11.3332 9.37311L13.6799 4.67978C14.9599 2.13311 17.0399 2.13311 18.3065 4.67978Z" fill="rgb(77,85,204)" fill-rule="nonzero" />
			<path id="Vector" opacity="0" transform="matrix(-1,-1.22465e-16,1.22465e-16,-1,32,32)" />
		</g>
	</g>
</svg>
